<svg xmlns="http://www.w3.org/2000/svg" viewBox="0 0 214.89 29.3"><defs><style>.cls-1{fill:#005bff;}</style></defs><title>Ресурс 3</title><g id="Слой_2" data-name="Слой 2"><g id="Слой_1-2" data-name="Слой 1"><path class="cls-1" d="M60.62,28.82H53.28L44.06,17.3H37.58V28.82H31.82V0h5.76V11.54h6.48L53.28,0h7.34L49.1,14.42Z"/><path class="cls-1" d="M81.6,21.14q0,7.68-7.92,7.68H68.4q-7.92,0-7.92-7.92V7.7h5.28V20.9a2.36,2.36,0,0,0,2.64,2.64h5.28a2.36,2.36,0,0,0,2.64-2.64V7.7H81.6Z"/><path class="cls-1" d="M84.48,7.7h2.88V0h5.28V7.7h2.88V13H92.64V28.82H87.36V13H84.48Z"/><path class="cls-1" d="M105,28.82q-6.61,0-6.62-6.72,0-6.48,6.62-6.48h9.22v0A2.31,2.31,0,0,0,111.6,13H99.36V7.7H111.6q7.92,0,7.92,7.92v13.2Zm0-5.28h9.22V20.9H105c-.89,0-1.34.43-1.34,1.29A1.19,1.19,0,0,0,105,23.54Z"/><path class="cls-1" d="M122.4,28.82V7.7h13.2q7.92,0,7.92,7.92v13.2h-5.28V15.62A2.33,2.33,0,0,0,135.6,13h-7.92V28.82Z"/><path class="cls-1" d="M167.52,21.38q0,7.92-7.92,7.92h-5.28q-7.92,0-7.92-7.92V15.14q0-7.92,7.92-7.92h5.28q7.92,0,7.92,7.92Zm-5.28,0V15.14a2.33,2.33,0,0,0-2.64-2.64h-5.28a2.33,2.33,0,0,0-2.64,2.64v6.24A2.33,2.33,0,0,0,154.32,24h5.28A2.33,2.33,0,0,0,162.24,21.38Z"/><path class="cls-1" d="M177.45,28.82,166.89,7.7h5.91l7.29,14.64L187.34,7.7h5.91L182.69,28.82Z"/><path class="cls-1" d="M200.4,28.82q-6.63,0-6.63-6.72,0-6.48,6.63-6.48h9.21v0A2.31,2.31,0,0,0,207,13H194.73V7.7H207q7.92,0,7.92,7.92v13.2Zm0-5.28h9.21V20.9H200.4q-1.35,0-1.35,1.29A1.19,1.19,0,0,0,200.4,23.54Z"/><path class="cls-1" d="M27.26,28.82V1.31H25.48L3.38,27.51h7.84l4.65-5.68h5.42v7H19.47V23.14H16.7l-4.5,5.68H0L24.69,0h4.37V28.82Zm-5.73-9.94H17.78L21.53,14Z"/></g></g></svg>