<svg width="64" height="64" viewBox="0 0 64 64" fill="none" xmlns="http://www.w3.org/2000/svg">
<path d="M32 0C14.32 0 0 14.692 0 32.812C0 47.312 9.168 59.6082 21.88 63.9434C23.48 64.2523 24.0667 63.2366 24.0667 62.3657C24.0667 61.5866 24.04 59.5219 24.0267 56.7866C15.1253 58.765 13.248 52.3846 13.248 52.3846C11.792 48.5975 9.688 47.5847 9.688 47.5847C6.78933 45.5506 9.912 45.5924 9.912 45.5924C13.1253 45.8205 14.8133 48.9732 14.8133 48.9732C17.6667 53.9902 22.304 52.5404 24.1333 51.7029C24.4213 49.5798 25.2453 48.1356 26.16 47.3148C19.0533 46.4939 11.584 43.6724 11.584 31.1008C11.584 27.5196 12.824 24.5923 14.8773 22.2967C14.5173 21.4675 13.4373 18.1312 15.1573 13.6123C15.1573 13.6123 17.8373 12.733 23.9573 16.9764C26.5173 16.2474 29.2373 15.8857 31.9573 15.869C34.6773 15.8857 37.3973 16.2474 39.9573 16.9764C46.0373 12.733 48.7173 13.6123 48.7173 13.6123C50.4373 18.1312 49.3573 21.4675 49.0373 22.2967C51.0773 24.5923 52.3173 27.5196 52.3173 31.1008C52.3173 43.7058 44.8373 46.48 37.7173 47.2869C38.8373 48.272 39.8773 50.2838 39.8773 53.3585C39.8773 57.7494 39.8373 61.2777 39.8373 62.3434C39.8373 63.2032 40.3973 64.23 42.0373 63.9017C54.84 59.5942 64 47.2897 64 32.812C64 14.692 49.672 0 32 0Z" fill="#FF737D"/>
</svg>
