<svg width="215" height="30" viewBox="0 0 215 30" fill="none" xmlns="http://www.w3.org/2000/svg">
<g clip-path="url(#clip0)">
<path d="M60.6 28.8H53.3L44.1 17.3H37.6V28.8H31.8V0H37.6V11.5H44.1L53.3 0H60.6L49.1 14.4L60.6 28.8Z" fill="#E5EEFF"/>
<path d="M81.6 21.1002C81.6 26.2002 79 28.8002 73.7 28.8002H68.4C63.1 28.8002 60.5 26.2002 60.5 20.9002V7.7002H65.8V20.9002C65.6 22.2002 66.5 23.4002 67.8 23.5002C68 23.5002 68.2 23.5002 68.4 23.5002H73.7C75 23.7002 76.2 22.8002 76.3 21.5002C76.3 21.3002 76.3 21.1002 76.3 20.9002V7.7002H81.6V21.1002Z" fill="#E5EEFF"/>
<path d="M84.5 7.7H87.4V0H92.7V7.7H95.6V13H92.7V28.8H87.4V13H84.5V7.7Z" fill="#E5EEFF"/>
<path d="M105 28.8002C100.6 28.8002 98.4 26.6002 98.4 22.1002C98.4 17.8002 100.6 15.6002 105 15.6002H114.2C114.4 14.3002 113.5 13.2002 112.2 13.0002C112 13.0002 111.8 13.0002 111.5 13.0002H99.4V7.7002H111.6C116.9 7.7002 119.5 10.3002 119.5 15.6002V28.8002H105ZM105 23.5002H114.2V20.9002H105C104.1 20.9002 103.7 21.3002 103.7 22.2002C103.6 22.9002 104.1 23.5002 104.7 23.5002C104.8 23.6002 104.9 23.6002 105 23.5002Z" fill="#E5EEFF"/>
<path d="M122.4 28.8002V7.7002H135.6C140.9 7.7002 143.5 10.3002 143.5 15.6002V28.8002H138.2V15.6002C138.4 14.3002 137.5 13.2002 136.2 13.0002C136 13.0002 135.8 13.0002 135.6 13.0002H127.7V28.8002H122.4Z" fill="#E5EEFF"/>
<path d="M167.5 21.3998C167.5 26.6998 164.9 29.2998 159.6 29.2998H154.3C149 29.2998 146.4 26.6998 146.4 21.3998V15.1998C146.4 9.8998 149 7.2998 154.3 7.2998H159.6C164.9 7.2998 167.5 9.8998 167.5 15.1998V21.3998ZM162.2 21.3998V15.1998C162.4 13.8998 161.5 12.6998 160.2 12.5998C160 12.5998 159.8 12.5998 159.5 12.5998H154.2C152.9 12.3998 151.7 13.2998 151.6 14.5998C151.6 14.7998 151.6 14.9998 151.6 15.2998V21.4998C151.4 22.7998 152.3 23.8998 153.6 24.0998C153.8 24.0998 154 24.0998 154.2 24.0998H159.5C160.8 24.2998 162 23.3998 162.1 22.0998C162.3 21.7998 162.3 21.5998 162.2 21.3998Z" fill="#E5EEFF"/>
<path d="M177.4 28.8002L166.9 7.7002H172.8L180.1 22.3002L187.4 7.7002H193.3L182.7 28.8002H177.4Z" fill="#E5EEFF"/>
<path d="M200.4 28.8002C196 28.8002 193.8 26.6002 193.8 22.1002C193.8 17.8002 196 15.6002 200.4 15.6002H209.6C209.8 14.3002 208.9 13.2002 207.6 13.0002C207.4 13.0002 207.2 13.0002 206.9 13.0002H194.6V7.7002H207C212.3 7.7002 214.9 10.3002 214.9 15.6002V28.8002H200.4ZM200.4 23.5002H209.6V20.9002H200.4C199.5 20.9002 199 21.3002 199 22.2002C198.9 22.9002 199.4 23.5002 200 23.6002C200.2 23.6002 200.3 23.6002 200.4 23.5002Z" fill="#E5EEFF"/>
<path d="M27.3 28.8V1.3H25.5L3.4 27.5H11.2L15.9 21.8H21.3V28.8H19.5V23.1H16.7L12.2 28.8H0L24.7 0H29.1V28.8H27.3ZM21.5 18.9H17.7L21.5 14V18.9Z" fill="#E5EEFF"/>
</g>
<defs>
<clipPath id="clip0">
<rect width="214.9" height="29.3" fill="white"/>
</clipPath>
</defs>
</svg>
