<svg width="22" height="25" viewBox="0 0 22 25" fill="none" xmlns="http://www.w3.org/2000/svg">
<path d="M18.2645 19.1457L17.6145 19.5793L19.1449 21.875H1.85469L3.67773 19.1406H13.6023V18.3594H3.46875C3.40446 18.3594 3.34115 18.3752 3.28446 18.4055C3.22777 18.4359 3.17943 18.4797 3.14375 18.5332L0.8 22.0488C0.75732 22.1131 0.734497 22.1885 0.734375 22.2656V23.4375C0.734375 23.6447 0.816685 23.8434 0.963198 23.9899C1.10971 24.1364 1.30842 24.2188 1.51562 24.2188H19.4844C19.6916 24.2188 19.8903 24.1364 20.0368 23.9899C20.1833 23.8434 20.2656 23.6447 20.2656 23.4375V22.2656C20.2655 22.1885 20.2427 22.1131 20.2 22.0488L18.2645 19.1457ZM1.51562 23.4375V22.6562H19.4844V23.4375H1.51562Z" fill="black"/>
<path d="M18.3125 0.78125H2.6875C2.37698 0.782177 2.07945 0.90594 1.85988 1.12551C1.64032 1.34508 1.51655 1.64261 1.51562 1.95312V12.1094C1.51655 12.4199 1.64032 12.7174 1.85988 12.937C2.07945 13.1566 2.37698 13.2803 2.6875 13.2812H8.15625V14.8438H6.59375C6.49015 14.8438 6.39079 14.8849 6.31754 14.9582C6.24428 15.0314 6.20312 15.1308 6.20312 15.2344V16.7969C6.20312 16.9005 6.24428 16.9998 6.31754 17.0731C6.39079 17.1463 6.49015 17.1875 6.59375 17.1875H14.4062C14.5099 17.1875 14.6092 17.1463 14.6825 17.0731C14.7557 16.9998 14.7969 16.9005 14.7969 16.7969V15.2344C14.7969 15.1308 14.7557 15.0314 14.6825 14.9582C14.6092 14.8849 14.5099 14.8438 14.4062 14.8438H12.8438V13.2812H18.3125C18.623 13.2803 18.9205 13.1566 19.1401 12.937C19.3597 12.7174 19.4834 12.4199 19.4844 12.1094V1.95312C19.4834 1.64261 19.3597 1.34508 19.1401 1.12551C18.9205 0.90594 18.623 0.782177 18.3125 0.78125V0.78125ZM14.0156 15.625V16.4062H6.98438V15.625H14.0156ZM8.9375 14.8438V13.2812H12.0625V14.8438H8.9375ZM18.7031 12.1094C18.7031 12.213 18.662 12.3123 18.5887 12.3856C18.5155 12.4588 18.4161 12.5 18.3125 12.5H2.6875C2.5839 12.5 2.48454 12.4588 2.41129 12.3856C2.33803 12.3123 2.29688 12.213 2.29688 12.1094V10.9375H18.7031V12.1094ZM18.7031 10.1562H2.29688V1.95312C2.29688 1.84952 2.33803 1.75017 2.41129 1.67691C2.48454 1.60366 2.5839 1.5625 2.6875 1.5625H18.3125C18.4161 1.5625 18.5155 1.60366 18.5887 1.67691C18.662 1.75017 18.7031 1.84952 18.7031 1.95312V10.1562Z" fill="black"/>
<path d="M16.3594 11.3281H17.1406V12.1094H16.3594V11.3281Z" fill="black"/>
<path d="M6.98438 9.375H8.54688C8.65048 9.375 8.74983 9.33385 8.82309 9.26059C8.89635 9.18733 8.9375 9.08798 8.9375 8.98438V8.59375H12.0625V8.98438C12.0625 9.08798 12.1037 9.18733 12.1769 9.26059C12.2502 9.33385 12.3495 9.375 12.4531 9.375H14.0156C14.1192 9.375 14.2186 9.33385 14.2918 9.26059C14.3651 9.18733 14.4062 9.08798 14.4062 8.98438V7.42188C14.4062 7.31827 14.3651 7.21892 14.2918 7.14566C14.2186 7.0724 14.1192 7.03125 14.0156 7.03125H13.625V4.6875H14.0156C14.1192 4.6875 14.2186 4.64634 14.2918 4.57309C14.3651 4.49983 14.4062 4.40048 14.4062 4.29688V2.73438C14.4062 2.63077 14.3651 2.53142 14.2918 2.45816C14.2186 2.38491 14.1192 2.34375 14.0156 2.34375H12.4531C12.3495 2.34375 12.2502 2.38491 12.1769 2.45816C12.1037 2.53142 12.0625 2.63077 12.0625 2.73438V3.125H8.9375V2.73438C8.9375 2.63077 8.89635 2.53142 8.82309 2.45816C8.74983 2.38491 8.65048 2.34375 8.54688 2.34375H6.98438C6.88077 2.34375 6.78142 2.38491 6.70816 2.45816C6.6349 2.53142 6.59375 2.63077 6.59375 2.73438V4.29688C6.59375 4.40048 6.6349 4.49983 6.70816 4.57309C6.78142 4.64634 6.88077 4.6875 6.98438 4.6875H7.375V7.03125H6.98438C6.88077 7.03125 6.78142 7.0724 6.70816 7.14566C6.6349 7.21892 6.59375 7.31827 6.59375 7.42188V8.98438C6.59375 9.08798 6.6349 9.18733 6.70816 9.26059C6.78142 9.33385 6.88077 9.375 6.98438 9.375ZM13.625 8.59375H12.8438V7.8125H13.625V8.59375ZM12.8438 3.125H13.625V3.90625H12.8438V3.125ZM7.375 3.125H8.15625V3.90625H7.375V3.125ZM8.15625 4.6875H8.54688C8.65048 4.6875 8.74983 4.64634 8.82309 4.57309C8.89635 4.49983 8.9375 4.40048 8.9375 4.29688V3.90625H12.0625V4.29688C12.0625 4.40048 12.1037 4.49983 12.1769 4.57309C12.2502 4.64634 12.3495 4.6875 12.4531 4.6875H12.8438V7.03125H12.4531C12.3495 7.03125 12.2502 7.0724 12.1769 7.14566C12.1037 7.21892 12.0625 7.31827 12.0625 7.42188V7.8125H8.9375V7.42188C8.9375 7.31827 8.89635 7.21892 8.82309 7.14566C8.74983 7.0724 8.65048 7.03125 8.54688 7.03125H8.15625V4.6875ZM7.375 7.8125H8.15625V8.59375H7.375V7.8125Z" fill="black"/>
<path d="M6.98438 20.3125H12.4531V21.0938H6.98438V20.3125Z" fill="black"/>
<path d="M21.3867 14.3906L20.2813 13.2852C20.2449 13.2488 20.2016 13.22 20.154 13.2006C20.1064 13.1811 20.0554 13.1714 20.0039 13.1719C19.9531 13.1714 19.9026 13.1812 19.8556 13.2006C19.8087 13.2201 19.7661 13.2489 19.7305 13.2852L14.4805 18.5352C14.4377 18.5779 14.4056 18.6301 14.3867 18.6875L14.1094 19.5156C14.0871 19.5843 14.084 19.6577 14.1006 19.728C14.1171 19.7982 14.1526 19.8626 14.2031 19.9141L13.6524 20.4688L14.2031 21.0196L14.7578 20.4688C14.7937 20.5048 14.8363 20.5333 14.8832 20.5528C14.9301 20.5722 14.9805 20.5822 15.0313 20.582C15.0737 20.5816 15.1158 20.575 15.1563 20.5625L15.9844 20.2852C16.0418 20.2664 16.094 20.2342 16.1367 20.1914L21.3867 14.9414C21.4595 14.8682 21.5003 14.7692 21.5003 14.666C21.5003 14.5628 21.4595 14.4638 21.3867 14.3906V14.3906ZM15.6524 19.5742L15.1406 19.7422L14.9258 19.5313L15.0977 19.0195L18.8985 15.2188L19.4531 15.7695L15.6524 19.5742ZM20.0039 15.2188L19.4531 14.668L20.0039 14.1133L20.5586 14.668L20.0039 15.2188Z" fill="black"/>
</svg>
