<svg width="25" height="25" viewBox="0 0 25 25" fill="none" xmlns="http://www.w3.org/2000/svg">
<path d="M22.5 3.75H11.25V4.58333H22.5V3.75Z" fill="black"/>
<path d="M18.3333 5.41663H11.25V6.24996H18.3333V5.41663Z" fill="black"/>
<path d="M18.3333 7.08337H11.25V7.91671H18.3333V7.08337Z" fill="black"/>
<path d="M22.5 2.08337H14.5833V2.91671H22.5V2.08337Z" fill="black"/>
<path d="M13.75 2.08337H12.9167V2.91671H13.75V2.08337Z" fill="black"/>
<path d="M12.9167 16.6666H12.0833V17.5H12.9167V16.6666Z" fill="black"/>
<path d="M6.96126 2.79461L6.37209 2.20544L5.53876 3.03878C5.3761 3.20149 5.3761 3.46524 5.53876 3.62794L6.37209 4.46128L6.96126 3.87211L6.42251 3.33336L6.96126 2.79461Z" fill="black"/>
<path d="M10.2946 3.03878L9.46124 2.20544L8.87207 2.79461L9.41082 3.33336L8.87207 3.87211L9.46124 4.46128L10.2946 3.62794C10.4572 3.46524 10.4572 3.20149 10.2946 3.03878Z" fill="black"/>
<path d="M7.93833 1.95109L7.10422 4.45105L7.89432 4.71467L8.72843 2.21471L7.93833 1.95109Z" fill="black"/>
<path d="M21.6667 12.9167V9.58333H20.8334V12.9167H20V8.75H19.1667V12.9167H18.3334V10.8333H17.5V12.9167H16.6667V10.4167H15.8334V12.9167H15V11.25H14.1667V12.9167H13.3334V13.75H22.5V12.9167H21.6667Z" fill="black"/>
<path d="M22.0833 0H2.91667C1.53652 0.00135417 0.418026 1.11984 0.416672 2.5V10.6775V10.6812V15.4167V16.6667C0.418026 18.0468 1.53652 19.1653 2.91667 19.1667H8.07584L6.40917 22.5H4.16667C3.47631 22.5 2.91667 23.0596 2.91667 23.75C2.91667 24.4404 3.47631 25 4.16667 25H20.8333C21.5237 25 22.0833 24.4404 22.0833 23.75C22.0833 23.0596 21.5237 22.5 20.8333 22.5H18.5908L16.9242 19.1667H22.0833C23.4635 19.1653 24.582 18.0468 24.5833 16.6667V2.5C24.582 1.11984 23.4635 0.00135417 22.0833 0ZM1.25001 5.8625L2.19709 6.99C2.27625 7.08432 2.39313 7.13875 2.51626 7.13875H3.79167C3.9148 7.13875 4.03167 7.08432 4.11084 6.99L5.05834 5.8625L5.99334 6.16625L6.09667 7.63417C6.10521 7.75693 6.16761 7.86964 6.26709 7.94208L7.29917 8.69208C7.39902 8.76417 7.52547 8.7887 7.645 8.75917L9.07542 8.40375L9.65376 9.19917L8.87417 10.4492C8.80959 10.554 8.79464 10.6819 8.83334 10.7987L9.22792 12.0117C9.26589 12.1286 9.35355 12.2229 9.4675 12.2692L10.8333 12.8229V13.8062L9.46667 14.36C9.35245 14.406 9.26464 14.5006 9.22709 14.6179L9.10209 15H6.70167C7.63542 13.045 6.8075 10.7032 4.8525 9.76943C3.70422 9.22099 2.3612 9.26359 1.25001 9.88375V5.8625ZM1.25001 10.875C2.59771 9.82359 4.54261 10.0638 5.59396 11.4116C6.40573 12.4521 6.46839 13.8929 5.75001 15H1.25001V10.875ZM20.8333 23.3333C21.0634 23.3333 21.25 23.5199 21.25 23.75C21.25 23.9801 21.0634 24.1667 20.8333 24.1667H4.16667C3.93657 24.1667 3.75001 23.9801 3.75001 23.75C3.75001 23.5199 3.93657 23.3333 4.16667 23.3333H20.8333ZM17.6592 22.5H7.34084L9.0075 19.1667H15.9925L17.6592 22.5ZM23.75 16.6667C23.75 17.5871 23.0038 18.3333 22.0833 18.3333H2.91667C1.9962 18.3333 1.25001 17.5871 1.25001 16.6667V15.8333H5.9675H5.97126H23.75V16.6667ZM23.75 15H10.1063L11.4067 14.4729C11.5638 14.4092 11.6666 14.2566 11.6667 14.0871V12.5417C11.6667 12.372 11.5639 12.2192 11.4067 12.1554L9.95834 11.5696L9.68417 10.7258L10.51 9.40083C10.5996 9.25687 10.593 9.07302 10.4933 8.93583L9.585 7.68583C9.48527 7.54849 9.31224 7.48536 9.14751 7.52625L7.63251 7.90125L6.91667 7.38125L6.80709 5.82708C6.79516 5.65766 6.68157 5.5124 6.52 5.46L5.05126 4.9825C4.88964 4.93104 4.71297 4.98182 4.60334 5.11125L3.60042 6.305H2.71167L1.70834 5.11125C1.59865 4.98167 1.42172 4.93083 1.26001 4.9825L1.25001 4.98625V2.5C1.25001 1.57953 1.9962 0.833333 2.91667 0.833333H22.0833C23.0038 0.833333 23.75 1.57953 23.75 2.5V15Z" fill="black"/>
</svg>
